HIERARCHY
ROOT Hips
{
	OFFSET 0.00 0.00 0.00
	CHANNELS 6 Xposition Yposition Zposition Xrotation Yrotation Zrotation
	JOINT LeftUpLeg
	{
		OFFSET 3.34807 0.00000 0.00000
		CHANNELS 3 Xrotation Yrotation Zrotation
		JOINT LeftLeg
		{
			OFFSET 0.00000 -16.98552 0.00000
			CHANNELS 3 Xrotation Yrotation Zrotation
			JOINT LeftFoot
			{
				OFFSET 0.00000 -16.83686 0.00000
				CHANNELS 3 Xrotation Yrotation Zrotation
				JOINT LeftToeBase
				{
					OFFSET 0.00000 -1.59599 5.95633
					CHANNELS 3 Xrotation Yrotation Zrotation
					End Site
					{
						OFFSET 0.00000 0.00000 2.95275
					}
				}
			}
		}
	}
	JOINT RightUpLeg
	{
		OFFSET -3.34807 0.00000 0.00000
		CHANNELS 3 Xrotation Yrotation Zrotation
		JOINT RightLeg
		{
			OFFSET 0.00000 -16.98552 0.00000
			CHANNELS 3 Xrotation Yrotation Zrotation
			JOINT RightFoot
			{
				OFFSET 0.00000 -16.83686 0.00000
				CHANNELS 3 Xrotation Yrotation Zrotation
				JOINT RightToeBase
				{
					OFFSET 0.00000 -1.59599 5.95633
					CHANNELS 3 Xrotation Yrotation Zrotation
					End Site
					{
						OFFSET 0.00000 0.00000 2.95275
					}
				}
			}
		}
	}
	JOINT Spine
	{
		OFFSET 0.00000 0.03937 0.00000
		CHANNELS 3 Xrotation Yrotation Zrotation
		JOINT Spine1
		{
			OFFSET 0.00000 7.93124 0.00000
			CHANNELS 3 Xrotation Yrotation Zrotation
			JOINT Neck
			{
				OFFSET 0.00000 8.48368 0.00000
				CHANNELS 3 Xrotation Yrotation Zrotation
				JOINT Head
				{
					OFFSET 0.00000 6.65077 0.00000
					CHANNELS 3 Xrotation Yrotation Zrotation
					End Site
					{
						OFFSET 0.00000 4.52755 0.00000
					}
				}
			}
			JOINT LeftShoulder
			{
				OFFSET 0.00000 8.48368 0.00000
				CHANNELS 3 Xrotation Yrotation Zrotation
				JOINT LeftArm
				{
					OFFSET 7.74502 -0.00003 0.00000
					CHANNELS 3 Xrotation Yrotation Zrotation
					JOINT LeftForeArm
					{
						OFFSET 12.49824 -0.00005 0.00000
						CHANNELS 3 Xrotation Yrotation Zrotation
						JOINT LeftHand
						{
							OFFSET 9.88337 -0.00004 0.00000
							CHANNELS 3 Xrotation Yrotation Zrotation
							JOINT LeftHandThumb
							{
								OFFSET 0.00000 0.00000 0.00000
								CHANNELS 3 Xrotation Yrotation Zrotation
								End Site
								{
									OFFSET 0.00000 0.00000 3.93700
								}
							}
							JOINT L_Wrist_End
							{
								OFFSET 3.93700 -0.00001 0.00000
								CHANNELS 3 Xrotation Yrotation Zrotation
							}
						}
					}
				}
			}
			JOINT RightShoulder
			{
				OFFSET 0.00000 8.48368 0.00000
				CHANNELS 3 Xrotation Yrotation Zrotation
				JOINT RightArm
				{
					OFFSET -7.74502 -0.00003 0.00000
					CHANNELS 3 Xrotation Yrotation Zrotation
					JOINT RightForeArm
					{
						OFFSET -12.49824 -0.00005 0.00000
						CHANNELS 3 Xrotation Yrotation Zrotation
						JOINT RightHand
						{
							OFFSET -9.88337 -0.00004 0.00000
							CHANNELS 3 Xrotation Yrotation Zrotation
							JOINT RightHandThumb
							{
								OFFSET 0.00000 0.00000 0.00000
								CHANNELS 3 Xrotation Yrotation Zrotation
								End Site
								{
									OFFSET 0.00000 0.00000 3.93700
								}
							}
							JOINT R_Wrist_End
							{
								OFFSET -5.39369 -0.00002 0.00000
								CHANNELS 3 Xrotation Yrotation Zrotation
							}
						}
					}
				}
			}
		}
	}
}
MOTION
Frames: 9
Frame Time: 0.033332
 55.2824 32.8701 6.3662 115.7079 -77.2274 110.3505 -44.5137 7.9675 9.3296 46.3358 -0.0000 0.0000 -20.0797 -1.5229 -17.8096 15.1005 0.0000 0.0000 -10.8685 -17.7091 -13.5328 47.4995 0.0000 0.0000 -11.1685 -13.7561 39.9816 -10.3948 0.0000 0.0000 -0.0580 -0.6222 -3.4170 26.2227 -6.8313 -7.9233 -9.1690 4.4203 2.1564 14.3021 -11.6149 3.1259 -6.8263 19.1877 26.9227 12.2169 -39.2269 -73.0489 -0.0004 -59.4974 -0.0002 -4.0139 -34.8218 21.0993 -0.0000 0.0000 -0.0000 -0.0000 0.0000 -0.0000 17.8597 -14.8540 -12.3187 -31.8034 46.3275 90.2236 -0.0002 49.7654 0.0001 63.4966 -75.3380 -136.9139 -0.0000 0.0000 -0.0000 -0.0000 0.0000 -0.0000
 54.5349 33.3822 6.4696 118.0887 -77.1757 112.0453 -41.5086 8.7688 9.9015 43.2874 -0.0000 0.0000 -19.9621 -1.5717 -18.0626 15.4074 0.0000 0.0000 -11.7436 -18.4320 -12.5865 45.7244 -0.0000 0.0000 -11.3343 -14.9509 38.8711 -10.1831 -0.0000 -0.0000 0.0901 -0.8092 -3.3200 25.5984 -6.7034 -7.4873 -9.2467 4.7012 2.2899 14.5991 -11.4862 2.9510 -7.1420 18.9524 27.1370 12.0433 -37.9429 -72.7940 -0.0004 -59.8128 -0.0002 -3.8547 -34.8371 21.2808 -0.0000 0.0000 -0.0000 -0.0000 0.0000 -0.0000 17.7390 -14.9875 -12.5259 -31.5092 46.2146 90.4101 -0.0003 50.3246 0.0001 67.3112 -74.6729 -132.4988 -0.0000 0.0000 -0.0000 -0.0000 0.0000 -0.0000
 53.7824 33.7621 6.5829 120.3371 -77.0896 113.9373 -38.8385 9.8906 10.2234 40.7617 -0.0000 0.0000 -20.0829 -1.7302 -18.1095 15.8600 0.0000 0.0000 -12.5770 -18.2833 -11.8590 44.2448 -0.0000 0.0000 -11.1010 -14.6561 39.5803 -9.9025 0.0000 -0.0000 -0.0063 -1.0279 -3.2777 24.9534 -6.7430 -7.2037 -9.2311 4.9367 2.3281 14.8071 -11.2429 2.9500 -7.0580 18.9648 27.0838 11.7290 -36.9306 -72.1281 -0.0004 -59.9373 -0.0002 -3.4162 -34.5317 21.2706 -0.0000 0.0000 -0.0000 -0.0000 0.0000 -0.0000 17.8184 -15.0300 -12.5142 -31.2119 46.2744 90.4251 -0.0003 50.4951 0.0001 69.5518 -74.3099 -130.3179 -0.0000 0.0000 -0.0000 -0.0000 0.0000 -0.0000
 53.0665 34.0047 6.6827 121.6300 -77.3078 114.9427 -36.4843 10.3870 10.2091 39.1793 0.0000 0.0000 -20.4746 -1.6654 -17.8542 15.7128 -0.0000 0.0000 -13.1132 -17.7716 -11.0728 43.1570 -0.0000 0.0000 -11.2559 -13.5563 40.0597 -10.0508 0.0000 0.0000 0.2206 -1.3563 -3.2423 24.0863 -6.7855 -6.7742 -9.1610 5.0546 2.4119 14.7205 -11.1989 2.8611 -7.3042 18.8667 27.2030 11.5034 -36.3200 -71.5229 -0.0004 -59.6386 -0.0002 -3.3673 -34.6858 21.3256 -0.0000 0.0000 -0.0000 -0.0000 0.0000 -0.0000 17.9410 -15.2660 -12.4446 -30.9140 46.1685 90.6174 -0.0003 50.1220 0.0001 67.5512 -74.3239 -131.5690 -0.0000 0.0000 -0.0000 -0.0000 0.0000 -0.0000
 52.3597 34.1388 6.7800 123.6463 -77.5124 116.8526 -34.3199 10.7272 10.0315 38.2433 0.0000 0.0000 -21.3146 -1.3219 -17.6376 15.5886 -0.0000 0.0000 -13.6904 -16.9647 -10.3786 42.3858 -0.0000 0.0000 -11.5198 -12.8617 40.6963 -10.3258 -0.0000 0.0000 0.3024 -1.5363 -3.2732 23.4808 -6.7553 -6.4427 -9.0727 5.0155 2.4220 14.5129 -11.1832 2.8779 -7.2646 18.7310 27.0264 10.9087 -35.3341 -70.8160 -0.0004 -59.5561 -0.0002 -3.6552 -34.4733 21.1483 -0.0000 0.0000 -0.0000 -0.0000 0.0000 -0.0000 18.3336 -15.3952 -12.1905 -30.7115 45.6898 90.7820 -0.0002 49.6220 0.0001 63.8464 -74.9966 -133.5190 -0.0000 0.0000 -0.0000 -0.0000 0.0000 -0.0000
 51.6912 34.1983 6.8710 125.2261 -77.7452 118.4153 -32.5028 10.7847 9.6882 37.8709 0.0000 0.0000 -22.2689 -0.8121 -17.1629 15.3318 0.0000 0.0000 -14.4712 -16.3289 -9.7618 41.8721 0.0000 0.0000 -12.0788 -12.5924 40.6398 -10.4688 0.0000 0.0000 0.3281 -1.7475 -3.2913 23.1452 -6.8086 -6.1611 -8.8825 5.0750 2.4485 13.8668 -11.1683 2.8299 -7.5595 18.5741 27.0358 9.9850 -34.2932 -70.3555 -0.0004 -59.2676 -0.0002 -3.7572 -34.4563 21.0159 -0.0000 0.0000 -0.0000 -0.0000 0.0000 -0.0000 18.3936 -15.6212 -11.9494 -30.8429 45.2343 91.2912 -0.0002 48.8319 0.0001 63.9815 -74.5395 -132.9495 -0.0000 0.0000 -0.0000 -0.0000 0.0000 -0.0000
 51.0564 34.2121 6.9525 127.0963 -77.9538 120.3483 -30.9095 10.9314 9.3533 37.8907 -0.0000 0.0000 -23.3641 -0.2903 -16.8051 15.1992 -0.0000 0.0000 -15.4149 -16.0457 -9.1844 41.4797 -0.0000 0.0000 -12.6886 -12.6719 40.2791 -10.2446 0.0000 0.0000 0.3877 -1.9276 -3.3299 22.9225 -6.8689 -5.9449 -8.8782 5.0820 2.4079 13.6015 -11.0045 2.9318 -7.7869 18.3735 26.9131 8.8297 -33.0243 -69.8483 -0.0004 -59.1252 -0.0002 -3.5696 -34.6280 21.3256 -0.0000 0.0000 -0.0000 -0.0000 0.0000 -0.0000 18.4660 -15.6642 -11.7377 -31.0770 44.5188 91.8742 -0.0002 48.0108 0.0001 62.0912 -74.4880 -134.2053 -0.0000 0.0000 -0.0000 -0.0000 0.0000 -0.0000
 50.4508 34.1554 7.0338 128.8533 -78.0771 122.1814 -29.6662 10.7784 8.9092 38.4597 -0.0000 0.0000 -24.7359 0.6582 -15.9439 15.0375 0.0000 0.0000 -16.5845 -16.1985 -8.7124 41.1510 -0.0000 0.0000 -13.4316 -12.1778 40.4857 -10.4396 0.0000 0.0000 0.4650 -2.0721 -3.3077 22.7216 -6.8973 -5.7395 -8.9634 5.1280 2.4482 13.3376 -10.9807 2.8583 -8.0885 18.1417 26.7437 7.5622 -31.8474 -69.2003 -0.0004 -59.1632 -0.0002 -3.9352 -34.9998 22.0115 -0.0000 0.0000 -0.0000 -0.0000 0.0000 -0.0000 18.4990 -15.6956 -11.5801 -31.2323 43.7469 92.2699 -0.0002 47.4364 0.0001 61.1778 -74.2919 -134.7485 -0.0000 0.0000 -0.0000 -0.0000 0.0000 -0.0000
 49.8591 34.0073 7.1401 130.5708 -78.1937 124.0029 -28.7916 9.7613 8.0782 40.0034 -0.0000 0.0000 -26.5742 2.1600 -13.9310 14.5057 -0.0000 0.0000 -17.8090 -16.4460 -8.4958 41.1026 0.0000 -0.0000 -14.1491 -11.2673 40.5754 -10.8383 0.0000 0.0000 0.5796 -2.2197 -3.1939 22.5247 -6.9004 -5.4856 -9.0032 5.0969 2.3989 12.7993 -10.9453 2.7670 -8.3807 17.8696 26.5474 6.2043 -31.2107 -68.2559 -0.0004 -59.0213 -0.0002 -3.9577 -35.6605 21.7475 -0.0000 0.0000 -0.0000 -0.0000 0.0000 -0.0000 18.5359 -15.6502 -11.5460 -31.0684 42.9681 92.1208 -0.0002 47.2759 0.0001 60.0840 -74.2505 -136.0105 -0.0000 0.0000 -0.0000 -0.0000 0.0000 -0.0000
